<?xml version="1.0" encoding="utf-8"?>
<!-- Generator: Adobe Illustrator 25.4.1, SVG Export Plug-In . SVG Version: 6.00 Build 0)  -->
<svg version="1.2" baseProfile="tiny" id="Ebene_1" xmlns="http://www.w3.org/2000/svg" xmlns:xlink="http://www.w3.org/1999/xlink"
	 x="0px" y="0px" viewBox="0 0 1081.9 288.8" overflow="visible" xml:space="preserve">
<g>
	<linearGradient id="SVGID_1_" gradientUnits="userSpaceOnUse" x1="75.8169" y1="287.7968" x2="75.8169" y2="66.7523">
		<stop  offset="0" style="stop-color:#CFBAF0"/>
		<stop  offset="0.9749" style="stop-color:#A3C4F3"/>
	</linearGradient>
	<path fill="url(#SVGID_1_)" stroke="#363636" stroke-width="2" stroke-miterlimit="10" d="M150.6,219.9c0,11.1-2.1,20.9-6.3,29.4
		c-4.2,8.5-10.1,15.6-17.7,21.3c-7.6,5.7-16.6,10-27,12.9c-10.4,2.9-21.7,4.3-33.8,4.3c-7.3,0-14.3-0.5-21-1.6
		c-6.7-1.1-12.6-2.5-17.9-4.2s-9.7-3.4-13.2-5.2s-6.1-3.4-7.7-4.9c-1.6-1.5-2.9-4-3.7-7.3S1,256.5,1,250c0-4.2,0.1-7.7,0.4-10.2
		c0.3-2.6,0.7-4.6,1.3-6.2c0.6-1.5,1.3-2.6,2.2-3.1c0.9-0.5,2-0.8,3.3-0.8c1.6,0,4,0.9,7.1,2.7c3.1,1.8,7.1,3.8,11.8,6
		c4.7,2.2,10.1,4.3,16.4,6.2c6.2,1.9,13.3,2.9,21.2,2.9c5,0,9.4-0.5,13.3-1.5c3.9-1,7.3-2.5,10.1-4.4c2.9-1.9,5-4.3,6.5-7.2
		c1.5-2.9,2.2-6.3,2.2-10.1c0-4.4-1.4-8.2-4.1-11.3c-2.7-3.1-6.3-5.9-10.8-8.2c-4.5-2.3-9.5-4.5-15.2-6.6c-5.6-2-11.4-4.3-17.4-6.8
		c-5.9-2.5-11.7-5.3-17.4-8.6c-5.6-3.2-10.7-7.2-15.2-11.9c-4.5-4.7-8.1-10.3-10.8-16.9c-2.7-6.6-4.1-14.5-4.1-23.7
		c0-9.4,1.8-18,5.5-25.8c3.7-7.8,8.9-14.5,15.8-20.1c6.9-5.6,15.3-9.9,25.2-13s21-4.6,33.3-4.6c6.2,0,12.1,0.4,17.9,1.3
		c5.8,0.9,11,2,15.7,3.3c4.7,1.3,8.6,2.7,11.9,4.3c3.2,1.5,5.5,2.9,6.9,4c1.4,1.1,2.4,2.2,3,3.3c0.6,1.1,1,2.4,1.3,4
		c0.3,1.5,0.5,3.4,0.8,5.7c0.2,2.3,0.3,5.1,0.3,8.5c0,4-0.1,7.2-0.3,9.7c-0.2,2.5-0.6,4.5-1.1,5.9c-0.5,1.5-1.2,2.5-2.1,3
		c-0.9,0.5-1.9,0.8-3.1,0.8c-1.3,0-3.4-0.8-6.2-2.3c-2.8-1.5-6.3-3.2-10.4-4.9s-9-3.4-14.5-4.9s-11.8-2.3-18.8-2.3
		c-5,0-9.3,0.5-13,1.5c-3.7,1-6.7,2.5-9,4.4c-2.3,1.9-4.1,4.1-5.3,6.7c-1.2,2.6-1.8,5.3-1.8,8.2c0,4.5,1.4,8.3,4.2,11.4
		c2.8,3.1,6.4,5.8,11,8.1c4.5,2.3,9.7,4.5,15.5,6.6c5.8,2.1,11.6,4.3,17.6,6.7s11.8,5.2,17.6,8.5c5.8,3.2,10.9,7.2,15.5,11.9
		c4.5,4.7,8.2,10.3,11,16.8C149.2,203.2,150.6,211,150.6,219.9z"/>
	
		<linearGradient id="SVGID_00000173128931876961330280000001080120437332596391_" gradientUnits="userSpaceOnUse" x1="544.5825" y1="284.0624" x2="544.5825" y2="66.7523">
		<stop  offset="0" style="stop-color:#CFBAF0"/>
		<stop  offset="0.9749" style="stop-color:#A3C4F3"/>
	</linearGradient>
	
		<path fill="url(#SVGID_00000173128931876961330280000001080120437332596391_)" stroke="#363636" stroke-width="2" stroke-miterlimit="10" d="
		M638.2,275.3c0,1.5-0.4,2.7-1.3,3.8s-2.3,2-4.4,2.7c-2.1,0.7-4.9,1.3-8.5,1.6c-3.6,0.4-8,0.5-13.3,0.5c-5.4,0-9.9-0.2-13.5-0.5
		c-3.6-0.4-6.4-0.9-8.5-1.6c-2.1-0.7-3.5-1.6-4.4-2.7s-1.3-2.4-1.3-3.8V163.4c0-9.5-0.7-17-2.1-22.4c-1.4-5.4-3.4-10.1-6-14
		c-2.6-3.9-6-6.9-10.2-9c-4.2-2.1-9-3.2-14.6-3.2c-7,0-14.1,2.6-21.3,7.7c-7.2,5.1-14.6,12.6-22.4,22.4v130.3c0,1.5-0.4,2.7-1.3,3.8
		s-2.4,2-4.5,2.7c-2.1,0.7-4.9,1.3-8.5,1.6c-3.5,0.4-8,0.5-13.4,0.5c-5.4,0-9.9-0.2-13.4-0.5c-3.5-0.4-6.3-0.9-8.5-1.6
		c-2.1-0.7-3.6-1.6-4.5-2.7s-1.3-2.4-1.3-3.8v-196c0-1.5,0.4-2.7,1.1-3.8c0.7-1.1,2-2,4-2.7c1.9-0.7,4.4-1.3,7.4-1.6
		c3-0.4,6.8-0.5,11.3-0.5c4.7,0,8.6,0.2,11.6,0.5c3.1,0.4,5.5,0.9,7.1,1.6c1.7,0.7,2.9,1.6,3.6,2.7c0.7,1.1,1.1,2.4,1.1,3.8v22.6
		c10.8-11.7,21.9-20.5,33.1-26.4c11.2-5.9,22.9-8.8,35-8.8c13.3,0,24.6,2.2,33.7,6.6c9.2,4.4,16.6,10.4,22.2,17.9
		c5.6,7.5,9.7,16.4,12.2,26.5c2.5,10.1,3.7,22.3,3.7,36.5V275.3z"/>
	
		<linearGradient id="SVGID_00000043437725829425930760000002596677154626149786_" gradientUnits="userSpaceOnUse" x1="793.8535" y1="287.7968" x2="793.8535" y2="70.4877">
		<stop  offset="0" style="stop-color:#CFBAF0"/>
		<stop  offset="0.9749" style="stop-color:#A3C4F3"/>
	</linearGradient>
	
		<path fill="url(#SVGID_00000043437725829425930760000002596677154626149786_)" stroke="#363636" stroke-width="2" stroke-miterlimit="10" d="
		M887.3,275.3c0,1.5-0.4,2.7-1.1,3.8c-0.7,1.1-2,2-3.8,2.7c-1.8,0.7-4.3,1.3-7.3,1.6c-3,0.4-6.8,0.5-11.3,0.5
		c-4.8,0-8.8-0.2-11.8-0.5c-3-0.4-5.4-0.9-7.1-1.6c-1.8-0.7-3-1.6-3.7-2.7c-0.7-1.1-1.1-2.4-1.1-3.8v-22.6
		c-10.8,11.7-21.9,20.5-33.1,26.4c-11.2,5.9-22.8,8.8-34.8,8.8c-13.5,0-24.8-2.2-33.9-6.6c-9.2-4.4-16.6-10.4-22.2-18
		c-5.6-7.6-9.7-16.4-12.1-26.5c-2.4-10-3.6-22.5-3.6-37.5v-120c0-1.5,0.4-2.7,1.2-3.8c0.8-1.1,2.3-2,4.4-2.7c2.1-0.7,5-1.3,8.6-1.6
		c3.6-0.4,8-0.5,13.3-0.5c5.4,0,9.9,0.2,13.4,0.5c3.5,0.4,6.3,0.9,8.5,1.6c2.1,0.7,3.6,1.6,4.5,2.7s1.3,2.4,1.3,3.8V190
		c0,10.3,0.7,18.1,2,23.5c1.3,5.4,3.3,10.1,6,14c2.7,3.9,6.2,6.9,10.3,9c4.2,2.1,9,3.2,14.6,3.2c7,0,14.1-2.6,21.2-7.7
		c7.1-5.1,14.7-12.6,22.7-22.4V79.3c0-1.5,0.4-2.7,1.2-3.8c0.8-1.1,2.3-2,4.4-2.7c2.1-0.7,4.9-1.3,8.5-1.6c3.5-0.4,8-0.5,13.4-0.5
		c5.4,0,9.9,0.2,13.4,0.5c3.5,0.4,6.3,0.9,8.3,1.6c2,0.7,3.5,1.6,4.4,2.7s1.3,2.4,1.3,3.8V275.3z"/>
	
		<linearGradient id="SVGID_00000097480090637077695380000007546787308430097822_" gradientUnits="userSpaceOnUse" x1="1006.1094" y1="287.7968" x2="1006.1094" y2="66.7523">
		<stop  offset="0" style="stop-color:#CFBAF0"/>
		<stop  offset="0.9749" style="stop-color:#A3C4F3"/>
	</linearGradient>
	
		<path fill="url(#SVGID_00000097480090637077695380000007546787308430097822_)" stroke="#363636" stroke-width="2" stroke-miterlimit="10" d="
		M1080.9,219.9c0,11.1-2.1,20.9-6.3,29.4c-4.2,8.5-10.1,15.6-17.7,21.3c-7.6,5.7-16.6,10-27,12.9c-10.4,2.9-21.7,4.3-33.8,4.3
		c-7.3,0-14.3-0.5-21-1.6c-6.7-1.1-12.6-2.5-17.9-4.2s-9.7-3.4-13.2-5.2s-6.1-3.4-7.7-4.9c-1.6-1.5-2.9-4-3.7-7.3s-1.3-8.2-1.3-14.6
		c0-4.2,0.1-7.7,0.4-10.2c0.3-2.6,0.7-4.6,1.3-6.2c0.6-1.5,1.3-2.6,2.2-3.1c0.9-0.5,2-0.8,3.3-0.8c1.6,0,4,0.9,7.1,2.7
		c3.1,1.8,7.1,3.8,11.8,6c4.7,2.2,10.1,4.3,16.4,6.2c6.2,1.9,13.3,2.9,21.2,2.9c5,0,9.4-0.5,13.3-1.5c3.9-1,7.2-2.5,10.1-4.4
		c2.9-1.9,5-4.3,6.5-7.2c1.5-2.9,2.2-6.3,2.2-10.1c0-4.4-1.4-8.2-4.1-11.3c-2.7-3.1-6.3-5.9-10.8-8.2c-4.5-2.3-9.5-4.5-15.2-6.6
		c-5.6-2-11.4-4.3-17.4-6.8c-5.9-2.5-11.7-5.3-17.4-8.6c-5.6-3.2-10.7-7.2-15.2-11.9c-4.5-4.7-8.1-10.3-10.8-16.9
		c-2.7-6.6-4.1-14.5-4.1-23.7c0-9.4,1.8-18,5.5-25.8c3.7-7.8,8.9-14.5,15.8-20.1c6.9-5.6,15.3-9.9,25.2-13c9.9-3.1,21-4.6,33.3-4.6
		c6.2,0,12.1,0.4,17.9,1.3c5.8,0.9,11,2,15.7,3.3c4.7,1.3,8.6,2.7,11.9,4.3c3.2,1.5,5.5,2.9,6.9,4c1.4,1.1,2.4,2.2,3,3.3
		c0.6,1.1,1,2.4,1.3,4c0.3,1.5,0.5,3.4,0.8,5.7c0.2,2.3,0.3,5.1,0.3,8.5c0,4-0.1,7.2-0.3,9.7c-0.2,2.5-0.6,4.5-1.1,5.9
		c-0.5,1.5-1.2,2.5-2.1,3c-0.9,0.5-1.9,0.8-3.1,0.8c-1.3,0-3.4-0.8-6.2-2.3c-2.8-1.5-6.3-3.2-10.4-4.9c-4.2-1.8-9-3.4-14.5-4.9
		c-5.5-1.5-11.8-2.3-18.8-2.3c-5,0-9.3,0.5-13,1.5c-3.7,1-6.7,2.5-9,4.4c-2.3,1.9-4.1,4.1-5.3,6.7c-1.2,2.6-1.8,5.3-1.8,8.2
		c0,4.5,1.4,8.3,4.2,11.4c2.8,3.1,6.4,5.8,11,8.1c4.5,2.3,9.7,4.5,15.5,6.6c5.8,2.1,11.6,4.3,17.6,6.7c5.9,2.4,11.8,5.2,17.6,8.5
		c5.8,3.2,10.9,7.2,15.5,11.9c4.5,4.7,8.2,10.3,11,16.8C1079.5,203.2,1080.9,211,1080.9,219.9z"/>
</g>
<g>
	<g>
		
			<linearGradient id="SVGID_00000134233530733762153570000008000588566168220325_" gradientUnits="userSpaceOnUse" x1="295.9717" y1="305.2404" x2="295.9717" y2="-1.5104">
			<stop  offset="0" style="stop-color:#CFBAF0"/>
			<stop  offset="0.9749" style="stop-color:#A3C4F3"/>
		</linearGradient>
		<path fill="url(#SVGID_00000134233530733762153570000008000588566168220325_)" d="M170.3,285.4c-1.3,0-2.3,0-2.8-0.1
			c-0.3,0-0.6,0-1-0.1c-3.3-0.4-5.6-1.4-6.8-2.8c-1.3-1.5-1.7-3.5-1.3-6.3c0.4-3,1.5-7.1,3.2-12.1l87.7-252.2
			c0.8-2.4,1.8-4.3,2.9-5.8c1-1.4,2.8-2.4,5.1-3.2c2.5-0.8,6-1.3,10.4-1.5c4.5-0.2,10.6-0.3,18-0.3c8.6,0,15.5,0.1,20.6,0.3
			c5,0.2,9,0.7,11.8,1.5c2.6,0.7,4.5,1.8,5.6,3.3c1.2,1.5,2.2,3.6,3,6.3l18.9,54.2c0.1,0.3,0.3,0.5,0.5,0.6c0.1,0.1,0.3,0.1,0.4,0.1
			c0.1,0,0.2,0,0.4-0.1c10.4-4,20.8-6.1,30.9-6.2c2.6,0,4,1.8,4.2,3.6c0.2,1.6-0.4,3.8-2.9,4.6c-26,7.8-44.4,19-55.2,27
			c-5.9,4.5-11.5,9.4-16.5,14.6L286,55.2c-0.1-0.4-0.5-0.6-0.9-0.6h-0.2c-0.4,0-0.8,0.3-0.9,0.7l-1.6,4.9l-53.3,141.4
			c-0.2,0.4,0,0.9,0.3,1.1c0.2,0.1,0.4,0.2,0.6,0.2c0.2,0,0.4-0.1,0.6-0.2c23.6-16.2,50.8-40.1,80.9-71c41.9-43,86-52.5,115.6-52.9
			l0.1,0c4,0,6.2,2.9,6.6,5.7c0.4,2.8-0.9,6.2-4.7,7.3c-26.7,7.9-47.4,17.7-63.3,30c-0.5,0.4-0.9,0.7-1.3,1.1l-0.5,0.4
			c-6.5,5.4-12.8,11.8-18.9,18.9c-6.8,8.4-12.4,17.1-17.4,25.2c-1.6,2.6-3.2,5.3-4.8,8c-13.7,22.8-29.3,48.6-62,76.3
			c-17.7,15-38.4,25.2-61.6,30.3c-2.2,0.5-4.4,0.9-6.8,1.3c0,0-0.1,0-0.1,0l-1.7,0.3c-0.4,0.1-0.9,0.1-1.3,0.2
			c-0.4,0.1-0.7,0.1-1.1,0.2c-0.4,0.1-0.8,0.1-1.2,0.2l-1.1,0.1l-1.2,0.1l-1,0.1l-1.1,0.1l-0.9,0.1c-0.4,0-1.7,0.2-1.7,0.2
			C175.6,285.3,172.3,285.4,170.3,285.4z"/>
		<path fill="#363636" d="M285.7,2c8.6,0,15.5,0.1,20.6,0.3c4.9,0.2,8.8,0.7,11.5,1.5c2.4,0.7,4.1,1.7,5.1,2.9
			c1.1,1.4,2.1,3.4,2.9,6c0,0,0,0,0,0.1l18.9,54.2c0.2,0.5,0.6,0.9,1,1.2c0.3,0.1,0.6,0.2,0.8,0.2c0.2,0,0.5,0,0.7-0.1
			c10.3-3.9,20.5-6,30.5-6.1l0.1,0c2,0,3,1.5,3.2,2.7c0.2,1.3-0.3,2.9-2.2,3.5c-26.1,7.8-44.6,19.1-55.5,27.1
			c-5.5,4.2-10.8,8.7-15.5,13.6l-20.8-54c-0.3-0.8-1-1.3-1.9-1.3h-0.2c-0.9,0-1.6,0.6-1.9,1.4l-1.6,4.9L228,201.3
			c-0.3,0.8-0.1,1.7,0.6,2.3c0.4,0.3,0.8,0.4,1.2,0.4c0.4,0,0.8-0.1,1.1-0.4c23.7-16.3,50.9-40.2,81.1-71.1
			c41.7-42.8,85.5-52.2,114.9-52.6l0.1,0c3.6,0,5.3,2.6,5.6,4.9c0.3,2.2-0.5,5.2-4,6.2C401.8,98.8,381,108.7,365,121
			c-0.5,0.4-0.9,0.7-1.3,1.1l-0.5,0.4c-6.5,5.5-12.9,11.9-19.1,19c-6.8,8.4-12.4,17.1-17.4,25.3c-1.6,2.6-3.2,5.2-4.8,8
			c-13.7,22.7-29.2,48.4-61.8,76c-17.6,14.9-38.2,25-61.2,30.1c-2.2,0.5-4.4,0.9-6.7,1.3c0,0-0.1,0-0.1,0l-0.2,0l-0.3,0
			c-0.4,0.1-0.8,0.1-1.1,0.2c-0.4,0.1-0.9,0.1-1.3,0.2c-0.4,0.1-0.7,0.1-1.1,0.2c-0.4,0.1-0.8,0.1-1.2,0.2c-0.4,0-0.7,0.1-1.1,0.1
			c-0.4,0.1-0.8,0.1-1.2,0.1c-0.3,0-0.7,0.1-1,0.1c-0.4,0-0.8,0.1-1.2,0.1c-0.3,0-0.6,0.1-0.9,0.1c-0.4,0-0.7,0.1-1.1,0.1l-0.3,0
			l-0.3,0c0,0-0.1,0-0.1,0c-4.1,0.3-7.4,0.4-9.4,0.4c-1.3,0-2.2,0-2.8-0.1c-0.3,0-0.6,0-0.9-0.1c-3-0.4-5.1-1.2-6.2-2.5
			c-1.1-1.2-1.4-3-1.1-5.5c0.4-2.9,1.5-6.9,3.2-11.9l87.7-252.2C251,9.8,252,8,253,6.6c0.9-1.2,2.5-2.1,4.6-2.8
			c2.4-0.7,5.8-1.2,10.2-1.4C272.3,2.1,278.3,2,285.7,2 M285.7,0c-7.5,0-13.5,0.1-18,0.3c-4.5,0.2-8.1,0.7-10.7,1.5
			c-2.6,0.8-4.4,2-5.6,3.5c-1.2,1.5-2.2,3.6-3.1,6l-87.7,252.2c-1.8,5.1-2.9,9.2-3.3,12.3c-0.4,3.1,0.1,5.5,1.5,7.1
			c1.4,1.6,3.9,2.7,7.4,3.1c0.3,0,0.7,0.1,1,0.1c0.6,0,1.5,0.1,2.9,0.1c2.2,0,5.5-0.1,9.6-0.4c0,0,0,0,0,0c0,0,0,0,0,0c0,0,0,0,0,0
			c0.2,0,0.4,0,0.6-0.1c0.4,0,0.7-0.1,1.1-0.1c0.3,0,0.6-0.1,1-0.1c0.4,0,0.8-0.1,1.1-0.1c0.3,0,0.7-0.1,1-0.1
			c0.4,0,0.8-0.1,1.2-0.1c0.4,0,0.7-0.1,1.1-0.1c0.4-0.1,0.8-0.1,1.2-0.2c0.4-0.1,0.7-0.1,1.1-0.2c0.4-0.1,0.9-0.1,1.3-0.2
			c0.4-0.1,0.8-0.1,1.2-0.2c0.2,0,0.4-0.1,0.6-0.1c0,0,0.1,0,0.1,0c2.2-0.4,4.4-0.8,6.8-1.4c17.9-4,40.7-12.5,62-30.6
			c36.7-31.1,51.8-59.5,67.1-84.5c5.4-8.8,10.8-17.2,17.3-25.1c6.7-7.8,13.1-14,18.8-18.8c0.6-0.5,1.2-1,1.8-1.4
			c14.7-11.4,34.3-21.4,63-29.8c8.5-2.5,6.6-15-2.2-15c0,0-0.1,0-0.1,0c-30.8,0.4-74.6,10.5-116.3,53.2
			c-35.9,36.9-62.6,58.4-80.8,70.9l53.4-141.4l1.6-4.9h0.2l22,56.9c0,0,0,0,0.1-0.1c5.6-5.9,11.5-11.1,17.4-15.5
			c11.8-8.7,29.9-19.3,54.9-26.8c5.7-1.7,4.4-10.1-1.5-10.1c0,0-0.1,0-0.1,0c-8.7,0.1-19.3,1.7-31.2,6.3l-18.9-54.2
			c-0.9-2.8-2-5-3.2-6.6c-1.2-1.6-3.3-2.8-6.2-3.6c-2.9-0.8-6.8-1.3-12-1.5S294.4,0,285.7,0L285.7,0z"/>
	</g>
	<g>
		
			<linearGradient id="SVGID_00000039826336529303991870000004605934553382824328_" gradientUnits="userSpaceOnUse" x1="377.369" y1="306.4366" x2="377.369" y2="152.6454">
			<stop  offset="0" style="stop-color:#CFBAF0"/>
			<stop  offset="0.9749" style="stop-color:#A3C4F3"/>
		</linearGradient>
		<path fill="url(#SVGID_00000039826336529303991870000004605934553382824328_)" d="M391.1,286c-9.7,0-18.5-6.1-22-15.1l-31.7-82.1
			c-1.3-3.4-0.9-7.2,1.1-10.2c6.5-9.8,12.9-18.5,19.2-25.8c2.2-2.5,5.2-3.9,8.5-3.9c4.9,0,9,3,10.6,7.5l37.7,108.1
			c1.7,5.2,2.8,9.3,3.3,12.3c0.4,2.8-0.1,4.7-1.5,6.1c-1.4,1.4-4.1,2.2-8,2.6c-4.1,0.4-9.7,0.5-16.8,0.5H391.1z"/>
		<path fill="#363636" d="M366.3,149.9c4.4,0,8.2,2.7,9.7,6.9l37.7,108c1.7,5.1,2.8,9.2,3.2,12.2c0.3,2.4,0,4.1-1.2,5.2
			c-0.9,0.8-2.9,1.9-7.4,2.3c-4.1,0.4-9.7,0.5-16.7,0.5l-0.5,0c-9.2,0-17.7-5.8-21-14.5l-31.7-82.1c-1.2-3.1-0.8-6.6,1-9.3
			c6.4-9.8,12.9-18.4,19.2-25.7C360.5,151.1,363.3,149.9,366.3,149.9 M366.3,147.9c-3.4,0-6.8,1.4-9.3,4.3
			c-6.9,8-13.4,16.9-19.3,25.9c-2.2,3.3-2.6,7.4-1.2,11.1l31.7,82.1c3.7,9.5,12.7,15.7,22.9,15.7c0.2,0,0.3,0,0.5,0
			c7.2,0,12.8-0.2,16.9-0.5c4.1-0.4,7-1.3,8.6-2.9c1.6-1.5,2.2-3.8,1.8-6.9s-1.5-7.3-3.3-12.5l-37.7-108.1
			C376,150.8,371.2,147.9,366.3,147.9L366.3,147.9z"/>
	</g>
</g>
</svg>
