<?xml version="1.0" encoding="utf-8"?>
<!-- Generator: Adobe Illustrator 25.4.1, SVG Export Plug-In . SVG Version: 6.00 Build 0)  -->
<svg version="1.2" baseProfile="tiny" id="Ebene_1" xmlns="http://www.w3.org/2000/svg" xmlns:xlink="http://www.w3.org/1999/xlink"
	 x="0px" y="0px" viewBox="0 0 1059.9 287.8" overflow="visible" xml:space="preserve">
<g>
	<path fill="#363636" d="M149.6,219.9c0,11.1-2.1,20.9-6.3,29.4c-4.2,8.5-10.1,15.6-17.7,21.3c-7.6,5.7-16.6,10-27,12.9
		c-10.4,2.9-21.7,4.3-33.8,4.3c-7.3,0-14.3-0.5-21-1.6c-6.7-1.1-12.6-2.5-17.9-4.2s-9.7-3.4-13.2-5.2s-6.1-3.4-7.7-4.9
		c-1.6-1.5-2.9-4-3.7-7.3S0,256.5,0,250c0-4.2,0.1-7.7,0.4-10.2c0.3-2.6,0.7-4.6,1.3-6.2c0.6-1.5,1.3-2.6,2.2-3.1
		c0.9-0.5,2-0.8,3.3-0.8c1.6,0,4,0.9,7.1,2.7c3.1,1.8,7.1,3.8,11.8,6c4.7,2.2,10.1,4.3,16.4,6.2c6.2,1.9,13.3,2.9,21.2,2.9
		c5,0,9.4-0.5,13.3-1.5c3.9-1,7.3-2.5,10.1-4.4c2.9-1.9,5-4.3,6.5-7.2c1.5-2.9,2.2-6.3,2.2-10.1c0-4.4-1.4-8.2-4.1-11.3
		c-2.7-3.1-6.3-5.9-10.8-8.2c-4.5-2.3-9.5-4.5-15.2-6.6c-5.6-2-11.4-4.3-17.4-6.8c-5.9-2.5-11.7-5.3-17.4-8.6
		c-5.6-3.2-10.7-7.2-15.2-11.9c-4.5-4.7-8.1-10.3-10.8-16.9c-2.7-6.6-4.1-14.5-4.1-23.7c0-9.4,1.8-18,5.5-25.8
		c3.7-7.8,8.9-14.5,15.8-20.1c6.9-5.6,15.3-9.9,25.2-13s21-4.6,33.3-4.6c6.2,0,12.1,0.4,17.9,1.3c5.8,0.9,11,2,15.7,3.3
		c4.7,1.3,8.6,2.7,11.9,4.3c3.2,1.5,5.5,2.9,6.9,4c1.4,1.1,2.4,2.2,3,3.3c0.6,1.1,1,2.4,1.3,4c0.3,1.5,0.5,3.4,0.8,5.7
		c0.2,2.3,0.3,5.1,0.3,8.5c0,4-0.1,7.2-0.3,9.7c-0.2,2.5-0.6,4.5-1.1,5.9c-0.5,1.5-1.2,2.5-2.1,3c-0.9,0.5-1.9,0.8-3.1,0.8
		c-1.3,0-3.4-0.8-6.2-2.3c-2.8-1.5-6.3-3.2-10.4-4.9s-9-3.4-14.5-4.9s-11.8-2.3-18.8-2.3c-5,0-9.3,0.5-13,1.5c-3.7,1-6.7,2.5-9,4.4
		c-2.3,1.9-4.1,4.1-5.3,6.7c-1.2,2.6-1.8,5.3-1.8,8.2c0,4.5,1.4,8.3,4.2,11.4c2.8,3.1,6.4,5.8,11,8.1c4.5,2.3,9.7,4.5,15.5,6.6
		c5.8,2.1,11.6,4.3,17.6,6.7s11.8,5.2,17.6,8.5c5.8,3.2,10.9,7.2,15.5,11.9c4.5,4.7,8.2,10.3,11,16.8
		C148.2,203.2,149.6,211,149.6,219.9z"/>
	<path fill="#363636" d="M637.2,275.3c0,1.5-0.4,2.7-1.3,3.8s-2.3,2-4.4,2.7c-2.1,0.7-4.9,1.3-8.5,1.6c-3.6,0.4-8,0.5-13.3,0.5
		c-5.4,0-9.9-0.2-13.5-0.5c-3.6-0.4-6.4-0.9-8.5-1.6c-2.1-0.7-3.5-1.6-4.4-2.7s-1.3-2.4-1.3-3.8V163.4c0-9.5-0.7-17-2.1-22.4
		c-1.4-5.4-3.4-10.1-6-14c-2.6-3.9-6-6.9-10.2-9c-4.2-2.1-9-3.2-14.6-3.2c-7,0-14.1,2.6-21.3,7.7c-7.2,5.1-14.6,12.6-22.4,22.4
		v130.3c0,1.5-0.4,2.7-1.3,3.8s-2.4,2-4.5,2.7c-2.1,0.7-4.9,1.3-8.5,1.6c-3.5,0.4-8,0.5-13.4,0.5c-5.4,0-9.9-0.2-13.4-0.5
		c-3.5-0.4-6.3-0.9-8.5-1.6c-2.1-0.7-3.6-1.6-4.5-2.7s-1.3-2.4-1.3-3.8v-196c0-1.5,0.4-2.7,1.1-3.8c0.7-1.1,2-2,4-2.7
		c1.9-0.7,4.4-1.3,7.4-1.6c3-0.4,6.8-0.5,11.3-0.5c4.7,0,8.6,0.2,11.6,0.5c3.1,0.4,5.5,0.9,7.1,1.6c1.7,0.7,2.9,1.6,3.6,2.7
		c0.7,1.1,1.1,2.4,1.1,3.8v22.6c10.8-11.7,21.9-20.5,33.1-26.4c11.2-5.9,22.9-8.8,35-8.8c13.3,0,24.6,2.2,33.7,6.6
		c9.2,4.4,16.6,10.4,22.2,17.9c5.6,7.5,9.7,16.4,12.2,26.5c2.5,10.1,3.7,22.3,3.7,36.5V275.3z"/>
	<path fill="#363636" d="M866.3,275.3c0,1.5-0.4,2.7-1.1,3.8c-0.7,1.1-2,2-3.8,2.7c-1.8,0.7-4.3,1.3-7.3,1.6
		c-3,0.4-6.8,0.5-11.3,0.5c-4.8,0-8.8-0.2-11.8-0.5c-3-0.4-5.4-0.9-7.1-1.6c-1.8-0.7-3-1.6-3.7-2.7c-0.7-1.1-1.1-2.4-1.1-3.8v-22.6
		c-10.8,11.7-21.9,20.5-33.1,26.4c-11.2,5.9-22.8,8.8-34.8,8.8c-13.5,0-24.8-2.2-33.9-6.6c-9.2-4.4-16.6-10.4-22.2-18
		c-5.6-7.6-9.7-16.4-12.1-26.5c-2.4-10-3.6-22.5-3.6-37.5v-120c0-1.5,0.4-2.7,1.2-3.8c0.8-1.1,2.3-2,4.4-2.7c2.1-0.7,5-1.3,8.6-1.6
		c3.6-0.4,8-0.5,13.3-0.5c5.4,0,9.9,0.2,13.4,0.5c3.5,0.4,6.3,0.9,8.5,1.6c2.1,0.7,3.6,1.6,4.5,2.7s1.3,2.4,1.3,3.8V190
		c0,10.3,0.7,18.1,2,23.5c1.3,5.4,3.3,10.1,6,14c2.7,3.9,6.2,6.9,10.3,9c4.2,2.1,9,3.2,14.6,3.2c7,0,14.1-2.6,21.2-7.7
		c7.1-5.1,14.7-12.6,22.7-22.4V79.3c0-1.5,0.4-2.7,1.2-3.8c0.8-1.1,2.3-2,4.4-2.7c2.1-0.7,4.9-1.3,8.5-1.6c3.5-0.4,8-0.5,13.4-0.5
		c5.4,0,9.9,0.2,13.4,0.5c3.5,0.4,6.3,0.9,8.3,1.6c2,0.7,3.5,1.6,4.4,2.7s1.3,2.4,1.3,3.8V275.3z"/>
	<path fill="#363636" d="M1059.9,219.9c0,11.1-2.1,20.9-6.3,29.4c-4.2,8.5-10.1,15.6-17.7,21.3c-7.6,5.7-16.6,10-27,12.9
		c-10.4,2.9-21.7,4.3-33.8,4.3c-7.3,0-14.3-0.5-21-1.6c-6.7-1.1-12.6-2.5-17.9-4.2s-9.7-3.4-13.2-5.2s-6.1-3.4-7.7-4.9
		c-1.6-1.5-2.9-4-3.7-7.3s-1.3-8.2-1.3-14.6c0-4.2,0.1-7.7,0.4-10.2c0.3-2.6,0.7-4.6,1.3-6.2c0.6-1.5,1.3-2.6,2.2-3.1
		c0.9-0.5,2-0.8,3.3-0.8c1.6,0,4,0.9,7.1,2.7c3.1,1.8,7.1,3.8,11.8,6c4.7,2.2,10.1,4.3,16.4,6.2c6.2,1.9,13.3,2.9,21.2,2.9
		c5,0,9.4-0.5,13.3-1.5c3.9-1,7.2-2.5,10.1-4.4c2.9-1.9,5-4.3,6.5-7.2c1.5-2.9,2.2-6.3,2.2-10.1c0-4.4-1.4-8.2-4.1-11.3
		c-2.7-3.1-6.3-5.9-10.8-8.2c-4.5-2.3-9.5-4.5-15.2-6.6c-5.6-2-11.4-4.3-17.4-6.8c-5.9-2.5-11.7-5.3-17.4-8.6
		c-5.6-3.2-10.7-7.2-15.2-11.9c-4.5-4.7-8.1-10.3-10.8-16.9c-2.7-6.6-4.1-14.5-4.1-23.7c0-9.4,1.8-18,5.5-25.8
		c3.7-7.8,8.9-14.5,15.8-20.1c6.9-5.6,15.3-9.9,25.2-13c9.9-3.1,21-4.6,33.3-4.6c6.2,0,12.1,0.4,17.9,1.3c5.8,0.9,11,2,15.7,3.3
		c4.7,1.3,8.6,2.7,11.9,4.3c3.2,1.5,5.5,2.9,6.9,4c1.4,1.1,2.4,2.2,3,3.3c0.6,1.1,1,2.4,1.3,4c0.3,1.5,0.5,3.4,0.8,5.7
		c0.2,2.3,0.3,5.1,0.3,8.5c0,4-0.1,7.2-0.3,9.7c-0.2,2.5-0.6,4.5-1.1,5.9c-0.5,1.5-1.2,2.5-2.1,3c-0.9,0.5-1.9,0.8-3.1,0.8
		c-1.3,0-3.4-0.8-6.2-2.3c-2.8-1.5-6.3-3.2-10.4-4.9c-4.2-1.8-9-3.4-14.5-4.9c-5.5-1.5-11.8-2.3-18.8-2.3c-5,0-9.3,0.5-13,1.5
		c-3.7,1-6.7,2.5-9,4.4c-2.3,1.9-4.1,4.1-5.3,6.7c-1.2,2.6-1.8,5.3-1.8,8.2c0,4.5,1.4,8.3,4.2,11.4c2.8,3.1,6.4,5.8,11,8.1
		c4.5,2.3,9.7,4.5,15.5,6.6c5.8,2.1,11.6,4.3,17.6,6.7c5.9,2.4,11.8,5.2,17.6,8.5c5.8,3.2,10.9,7.2,15.5,11.9
		c4.5,4.7,8.2,10.3,11,16.8C1058.5,203.2,1059.9,211,1059.9,219.9z"/>
</g>
<g>
	<path fill="#363636" d="M425.9,77.8c-30.8,0.4-74.6,10.5-116.3,53.2c-35.9,36.9-62.6,58.4-80.8,70.9l53.4-141.5l1.6-4.9h0.2
		l22,56.9c0,0,0,0,0.1-0.1c5.6-5.9,11.5-11.1,17.4-15.5c11.8-8.7,29.9-19.3,54.9-26.8c5.8-1.7,4.4-10.2-1.6-10.1
		c-8.7,0.1-19.3,1.7-31.2,6.3l-18.9-54.2c-0.9-2.8-2-5-3.2-6.6c-1.2-1.6-3.3-2.8-6.2-3.6c-2.9-0.8-6.8-1.3-12-1.5
		c-5.1-0.2-12-0.3-20.7-0.3c-7.5,0-13.5,0.1-18,0.3c-4.5,0.2-8.1,0.7-10.7,1.5c-2.6,0.8-4.4,2-5.6,3.5c-1.2,1.5-2.2,3.5-3.1,6
		l-87.7,252.2c-1.8,5.1-2.9,9.2-3.3,12.3c-0.4,3.1,0.1,5.5,1.5,7.1c1.4,1.6,3.9,2.7,7.4,3.1c0.3,0,0.7,0.1,1,0.1
		c1.5,0.1,6,0.2,12.4-0.4c0,0,0,0,0,0c0.2,0,0.4,0,0.6-0.1c0.4,0,0.7-0.1,1.1-0.1c0.3,0,0.6-0.1,1-0.1c0.4,0,0.8-0.1,1.1-0.1
		c0.3,0,0.7-0.1,1-0.1c0.4,0,0.8-0.1,1.2-0.1c0.4,0,0.7-0.1,1.1-0.1c0.4-0.1,0.8-0.1,1.2-0.2c0.4-0.1,0.7-0.1,1.1-0.2
		c0.4-0.1,0.9-0.1,1.3-0.2c0.4-0.1,0.8-0.1,1.2-0.2c0.2,0,0.4-0.1,0.6-0.1c0,0,0.1,0,0.1,0c2.2-0.4,4.4-0.8,6.8-1.4
		c17.9-4,40.7-12.5,62-30.6c36.7-31.1,51.8-59.5,67.1-84.5c5.4-8.8,10.8-17.2,17.3-25.1c6.7-7.8,13.1-14,18.8-18.8
		c0.6-0.5,1.2-1,1.8-1.4c14.7-11.4,34.3-21.4,63-29.8C436.8,90.3,434.8,77.7,425.9,77.8z"/>
	<path fill="#363636" d="M414.6,264.1l-37.7-108.1c-3.1-8.9-14.7-11.1-20.8-3.9c-6.9,8-13.4,16.9-19.3,25.9
		c-2.2,3.3-2.6,7.4-1.2,11.1l31.7,82.1c3.7,9.5,12.7,15.7,22.9,15.7c0.2,0,0.3,0,0.5,0c7.2,0,12.8-0.2,16.9-0.5
		c4.1-0.4,7-1.3,8.6-2.9c1.6-1.5,2.2-3.8,1.8-6.9S416.3,269.4,414.6,264.1z"/>
</g>
</svg>
