<?xml version="1.0" encoding="utf-8"?>
<!-- Generator: Adobe Illustrator 25.4.1, SVG Export Plug-In . SVG Version: 6.00 Build 0)  -->
<svg version="1.1" id="Ebene_1" xmlns="http://www.w3.org/2000/svg" xmlns:xlink="http://www.w3.org/1999/xlink" x="0px" y="0px"
	 viewBox="0 0 800 800" style="enable-background:new 0 0 800 800;" xml:space="preserve">
<style type="text/css">
	.st0{opacity:0.54;fill:url(#SVGID_1_);enable-background:new    ;}
</style>
<linearGradient id="SVGID_1_" gradientUnits="userSpaceOnUse" x1="-25.8534" y1="400" x2="806.3124" y2="400" gradientTransform="matrix(1 0 0 -1 0 800)">
	<stop  offset="0" style="stop-color:#94D4EE"/>
	<stop  offset="1" style="stop-color:#A4C2E7"/>
</linearGradient>
<path class="st0" d="M400,0C179.1,0,0,179.1,0,400c0,108.9,43.5,207.7,114.2,279.8c297.9-115.9,492.7,5.7,496.8,8.3
	c-210.7-45.5-381.4-23.6-486.2,2.1C196.5,758.3,293.4,800,400,800c220.9,0,400-179.1,400-400S620.9,0,400,0z M117.8,666.9
	c342-277.4,240.7-638.2,240.7-638.2c270.6,302.1,127.7,600.7,127.7,600.7C264.4,594.2,121.4,665.1,117.8,666.9z M580.7,666.9
	c-55.3-29.8-87.6-36.6-87.6-36.6c115.2-258.2-55.5-517.2-59.5-523.2C693,393.8,580.7,666.9,580.7,666.9z"/>
</svg>
