<?xml version="1.0" encoding="utf-8"?>
<!-- Generator: Adobe Illustrator 25.4.1, SVG Export Plug-In . SVG Version: 6.00 Build 0)  -->
<svg version="1.1" xmlns="http://www.w3.org/2000/svg" xmlns:xlink="http://www.w3.org/1999/xlink" x="0px" y="0px"
	 viewBox="0 0 469.8 254.7" style="enable-background:new 0 0 469.8 254.7;" xml:space="preserve">
<style type="text/css">
	.st0{opacity:0.54;fill:url(#SVGID_1_);}
	.st1{fill:#A4C2E7;}
</style>
<g id="Logo">
	<linearGradient id="SVGID_1_" gradientUnits="userSpaceOnUse" x1="5.6711" y1="127.2233" x2="263.1744" y2="127.2233">
		<stop  offset="0" style="stop-color:#94D4EE"/>
		<stop  offset="1" style="stop-color:#A4C2E7"/>
	</linearGradient>
	<path class="st0" d="M137.5,3.4C69.1,3.4,13.7,58.9,13.7,127.2c0,33.7,13.5,64.3,35.3,86.6c92.2-35.9,152.5,1.8,153.7,2.6
		c-65.2-14.1-118-7.3-150.5,0.7c22.2,21,52.2,34,85.2,34c68.4,0,123.8-55.4,123.8-123.8C261.2,58.9,205.8,3.4,137.5,3.4z
		 M50.1,209.8C156,124,124.6,12.3,124.6,12.3c83.7,93.5,39.5,185.9,39.5,185.9C95.5,187.3,51.2,209.3,50.1,209.8z M193.4,209.8
		c-17.1-9.2-27.1-11.3-27.1-11.3c35.7-79.9-17.2-160-18.4-161.9C228.1,125.3,193.4,209.8,193.4,209.8z"/>
</g>
<g id="Ebene_1">
	<g>
		<g>
			<path class="st1" d="M7.1,157.9v-4.5h2.5v4.5c0,17.8,11.8,28,29.8,28c17.8,0,29.8-10,29.8-28c0-19.8-15-26.2-30-32.7
				c-15.2-6.8-30.8-13.5-30.8-34.2c0-18.5,13.2-30,30.5-30c17.5,0,30.5,11.3,30.5,30.8v2h-2.5v-2c0-18.2-12-28.3-28-28.3
				c-15.5,0-28,10.3-28,27.5c0,19,14.8,25.5,29.5,32c15.5,6.7,31.3,13.7,31.3,35c0,19.5-13,30.5-32.3,30.5S7.1,177.4,7.1,157.9z"/>
			<path class="st1" d="M281.6,95.6v90.2h-2.5V96.4c0-21.8-8.8-33-26-33c-19.8,0-33,17.5-33,44v78.5h-2.5V63.4h2.2v27.8
				c4.5-19,16.8-30.3,33.2-30.3C271.6,60.9,281.6,72.9,281.6,95.6z"/>
			<path class="st1" d="M374.1,63.4v122.5h-2.2v-27.8c-4.5,19-16.8,30.2-33.2,30.2c-18.5,0-28.5-12-28.5-34.8V63.4h2.5v89.5
				c0,21.8,8.8,33,26,33c19.8,0,33-17.5,33-44V63.4H374.1z"/>
			<path class="st1" d="M398.9,157.9v-4.5h2.5v4.5c0,17.8,11.8,28,29.8,28c17.8,0,29.8-10,29.8-28c0-19.8-15-26.2-30-32.7
				c-15.2-6.8-30.8-13.5-30.8-34.2c0-18.5,13.2-30,30.5-30c17.5,0,30.5,11.3,30.5,30.8v2h-2.5v-2c0-18.2-12-28.3-28-28.3
				c-15.5,0-28,10.3-28,27.5c0,19,14.8,25.5,29.5,32c15.5,6.7,31.2,13.7,31.2,35c0,19.5-13,30.5-32.2,30.5S398.9,177.4,398.9,157.9z
				"/>
		</g>
	</g>
	<g>
	</g>
	<g>
	</g>
	<g>
	</g>
	<g>
	</g>
	<g>
	</g>
	<g>
	</g>
</g>
</svg>
