<?xml version="1.0" encoding="utf-8"?>
<!-- Generator: Adobe Illustrator 25.4.1, SVG Export Plug-In . SVG Version: 6.00 Build 0)  -->
<svg version="1.1" xmlns="http://www.w3.org/2000/svg" xmlns:xlink="http://www.w3.org/1999/xlink" x="0px" y="0px"
	 viewBox="0 0 475.5 248.7" style="enable-background:new 0 0 475.5 248.7;" xml:space="preserve">
<style type="text/css">
	.st0{fill:none;stroke:#A4C2E7;stroke-linecap:round;stroke-miterlimit:10;}
	.st1{fill:none;stroke:#A4C2E7;stroke-linecap:round;stroke-linejoin:round;stroke-miterlimit:10;}
	.st2{opacity:0.54;fill:url(#SVGID_1_);}
	.st3{fill:#A4C2E7;}
</style>
<g id="Logo">
	<line class="st0" x1="34.4" y1="189.5" x2="9.8" y2="189.5"/>
	<line class="st1" x1="466.1" y1="189.5" x2="245.7" y2="189.5"/>
	<linearGradient id="SVGID_1_" gradientUnits="userSpaceOnUse" x1="8.2856" y1="124.9406" x2="265.7888" y2="124.9406">
		<stop  offset="0" style="stop-color:#94D4EE"/>
		<stop  offset="1" style="stop-color:#A4C2E7"/>
	</linearGradient>
	<path class="st2" d="M140.1,1.2C71.7,1.2,16.3,56.6,16.3,124.9c0,33.7,13.5,64.3,35.3,86.6c92.2-35.9,152.5,1.8,153.7,2.6
		c-65.2-14.1-118-7.3-150.5,0.7c22.2,21,52.2,34,85.2,34c68.4,0,123.8-55.4,123.8-123.8S208.4,1.2,140.1,1.2z M52.7,207.5
		c105.8-85.8,74.5-197.5,74.5-197.5C211,103.5,166.7,196,166.7,196C98.1,185,53.8,207,52.7,207.5z M196,207.5
		c-17.1-9.2-27.1-11.3-27.1-11.3c35.7-79.9-17.2-160-18.4-161.9C230.7,123,196,207.5,196,207.5z"/>
</g>
<g id="Ebene_1">
	<g>
		<g>
			<path class="st3" d="M9.8,155.6v-4.5h2.5v4.5c0,17.8,11.8,28,29.8,28c17.8,0,29.8-10,29.8-28c0-19.8-15-26.2-30-32.8
				C26.5,116.1,11,109.4,11,88.6c0-18.5,13.2-30,30.5-30C59,58.6,72,69.9,72,89.4v2h-2.5v-2c0-18.2-12-28.3-28-28.3
				c-15.5,0-28,10.3-28,27.5c0,19,14.8,25.5,29.5,32c15.5,6.8,31.2,13.8,31.2,35c0,19.5-13,30.5-32.2,30.5S9.8,175.1,9.8,155.6z"/>
			<path class="st3" d="M284.2,93.4v90.2h-2.5V94.1c0-21.8-8.8-33-26-33c-19.8,0-33,17.5-33,44v78.5h-2.5V61.1h2.2v27.8
				c4.5-19,16.8-30.3,33.2-30.3C274.2,58.6,284.2,70.6,284.2,93.4z"/>
			<path class="st3" d="M376.7,61.1v122.5h-2.2v-27.8c-4.5,19-16.8,30.2-33.2,30.2c-18.5,0-28.5-12-28.5-34.8V61.1h2.5v89.5
				c0,21.8,8.8,33,26,33c19.8,0,33-17.5,33-44V61.1H376.7z"/>
			<path class="st3" d="M401.5,155.6v-4.5h2.5v4.5c0,17.8,11.8,28,29.8,28c17.8,0,29.8-10,29.8-28c0-19.8-15-26.2-30-32.8
				c-15.2-6.8-30.8-13.5-30.8-34.2c0-18.5,13.2-30,30.5-30c17.5,0,30.5,11.3,30.5,30.8v2h-2.5v-2c0-18.2-12-28.3-28-28.3
				c-15.5,0-28,10.3-28,27.5c0,19,14.8,25.5,29.5,32c15.5,6.8,31.2,13.8,31.2,35c0,19.5-13,30.5-32.2,30.5S401.5,175.1,401.5,155.6z
				"/>
		</g>
	</g>
	<g>
		<path class="st3" d="M254.1,204.2v10.4h-1.3v-10.3c0-1.7-0.7-2.7-2.2-2.7c-1.6,0-2.8,1.5-2.8,4v9.1h-1.3v-10.3
			c0-1.7-0.7-2.7-2.2-2.7c-1.6,0-2.8,1.5-2.8,4v9.1h-1.3v-13.9h1.1l0,2c0.6-1.5,1.7-2.3,3.2-2.3c1.6,0,2.6,0.8,3,2.3
			c0.6-1.5,1.7-2.3,3.2-2.3C252.9,200.4,254.1,201.7,254.1,204.2z"/>
		<path class="st3" d="M264.6,204.9v2.8H258v2.9c0,2.1,0.9,3.2,2.7,3.2c1.8,0,2.7-1.1,2.7-3.2v-0.3h1.2v0.2c0,2.9-1.4,4.5-3.9,4.5
			c-2.6,0-3.9-1.6-3.9-4.5v-5.5c0-2.9,1.3-4.5,3.9-4.5C263.2,200.4,264.6,202,264.6,204.9z M263.4,206.6v-1.8c0-2.1-1-3.2-2.7-3.2
			c-1.8,0-2.7,1.1-2.7,3.2v1.8H263.4z"/>
		<path class="st3" d="M275,204.4v10.2h-1.3v-10c0-2-0.8-3.1-2.3-3.1c-1.7,0-2.9,1.5-2.9,4v9.1h-1.3v-13.9h1.1l0,2
			c0.6-1.5,1.8-2.3,3.3-2.3C273.8,200.4,275,201.7,275,204.4z"/>
		<path class="st3" d="M277.3,211.1v-0.5h1.2v0.5c0,1.7,1,2.6,2.6,2.6c1.5,0,2.6-0.8,2.6-2.5s-1.4-2.4-2.8-3.1
			c-1.7-0.8-3.4-1.6-3.4-4.1c0-2.2,1.4-3.6,3.6-3.6c2.2,0,3.6,1.4,3.6,3.7v0.3h-1.2v-0.3c0-1.7-1-2.5-2.4-2.5
			c-1.3,0-2.4,0.8-2.4,2.4c0,1.7,1.3,2.4,2.8,3.1c1.7,0.8,3.4,1.7,3.4,4.2c0,2.3-1.4,3.7-3.8,3.7
			C278.7,214.9,277.3,213.5,277.3,211.1z"/>
		<path class="st3" d="M291.3,211.1v-0.5h1.2v0.5c0,1.7,1,2.6,2.6,2.6c1.5,0,2.6-0.8,2.6-2.5s-1.4-2.4-2.8-3.1
			c-1.7-0.8-3.4-1.6-3.4-4.1c0-2.2,1.4-3.6,3.6-3.6c2.2,0,3.6,1.4,3.6,3.7v0.3h-1.2v-0.3c0-1.7-1-2.5-2.4-2.5
			c-1.3,0-2.4,0.8-2.4,2.4c0,1.7,1.3,2.4,2.8,3.1c1.7,0.8,3.4,1.7,3.4,4.2c0,2.3-1.4,3.7-3.8,3.7
			C292.8,214.9,291.3,213.5,291.3,211.1z"/>
		<path class="st3" d="M307.6,214.6c-0.1-0.4-0.2-1.2-0.2-2.1c-0.6,1.5-1.8,2.4-3.5,2.4c-2,0-3.2-1.3-3.2-3.4c0-2.1,1-3.3,3.6-4.5
			c2.6-1.1,3-1.5,3-2.6v-0.4c0-1.6-0.9-2.5-2.4-2.5s-2.6,0.9-2.6,2.7v0.3h-1.2v-0.3c0-2.5,1.5-3.8,3.8-3.8c2.4,0,3.6,1.4,3.6,3.8
			v6.8c0,1.5,0.1,2.8,0.3,3.6H307.6z M307.3,209.8v-3.2c-0.3,0.5-1,0.8-2.6,1.6c-1.9,0.8-2.7,1.8-2.7,3.3c0,1.5,0.8,2.4,2.2,2.4
			C306,213.8,307.3,212.2,307.3,209.8z"/>
		<path class="st3" d="M319.2,204.4v10.2h-1.3v-10c0-2-0.8-3.1-2.3-3.1c-1.7,0-2.9,1.5-2.9,4v9.1h-1.3v-13.9h1.1l0,2
			c0.6-1.5,1.8-2.3,3.3-2.3C318.1,200.4,319.2,201.7,319.2,204.4z"/>
		<path class="st3" d="M328.4,214.6c-0.1-0.4-0.2-1.2-0.2-2.1c-0.6,1.5-1.8,2.4-3.5,2.4c-2,0-3.2-1.3-3.2-3.4c0-2.1,1-3.3,3.6-4.5
			c2.6-1.1,3-1.5,3-2.6v-0.4c0-1.6-0.9-2.5-2.4-2.5s-2.6,0.9-2.6,2.7v0.3h-1.2v-0.3c0-2.5,1.5-3.8,3.8-3.8c2.4,0,3.6,1.4,3.6,3.8
			v6.8c0,1.5,0.1,2.8,0.3,3.6H328.4z M328,209.8v-3.2c-0.3,0.5-1,0.8-2.6,1.6c-1.9,0.8-2.7,1.8-2.7,3.3c0,1.5,0.8,2.4,2.2,2.4
			C326.8,213.8,328,212.2,328,209.8z"/>
		<path class="st3" d="M336.9,195.7h1.3v2.8h-1.3V195.7z M336.9,200.7h1.3v13.9h-1.3V200.7z"/>
		<path class="st3" d="M348.9,204.4v10.2h-1.3v-10c0-2-0.8-3.1-2.3-3.1c-1.7,0-2.9,1.5-2.9,4v9.1h-1.3v-13.9h1.1l0,2
			c0.6-1.5,1.8-2.3,3.3-2.3C347.8,200.4,348.9,201.7,348.9,204.4z"/>
		<path class="st3" d="M356.2,210.5v-5.7c0-2.9,1.3-4.4,3.9-4.4c2.6,0,3.8,1.6,3.8,4.4v0.4h-1.2v-0.5c0-2.1-0.8-3.2-2.6-3.2
			s-2.6,1.1-2.6,3.2v5.9c0,2,0.8,3.2,2.6,3.2s2.6-1.1,2.6-3.2v-0.8h1.2v0.7c0,2.8-1.2,4.4-3.8,4.4
			C357.6,214.9,356.2,213.3,356.2,210.5z"/>
		<path class="st3" d="M366.2,210.4v-5.5c0-2.9,1.4-4.5,3.9-4.5c2.5,0,3.9,1.6,3.9,4.5v5.5c0,2.9-1.4,4.5-3.9,4.5
			C367.5,214.9,366.2,213.3,366.2,210.4z M372.8,210.5v-5.8c0-2-0.8-3.2-2.7-3.2c-1.8,0-2.7,1.2-2.7,3.2v5.8c0,2,0.8,3.2,2.7,3.2
			C371.9,213.8,372.8,212.6,372.8,210.5z"/>
		<path class="st3" d="M381.9,200.6v1.3c-0.3-0.1-0.6-0.2-1-0.2c-2,0-3,1.5-3,4.8v8.2h-1.3v-13.9h1.1l0,2.2c0.5-1.7,1.6-2.5,3.1-2.5
			C381.3,200.4,381.6,200.5,381.9,200.6z"/>
		<path class="st3" d="M391.8,204.4v6.5c0,2.7-1.2,4-3.3,4c-1.5,0-2.6-0.8-3.2-2.1v6.1h-1.3v-18.2h1.1l0,2.2
			c0.6-1.5,1.8-2.4,3.4-2.4C390.6,200.4,391.8,201.7,391.8,204.4z M390.5,204.6c0-1.9-0.7-3-2.4-3c-1.7,0-3,1.5-3,4v4.3
			c0,2.5,1.3,4,3,4c1.6,0,2.4-1.1,2.4-3V204.6z"/>
		<path class="st3" d="M394.3,210.4v-5.5c0-2.9,1.4-4.5,3.9-4.5c2.5,0,3.9,1.6,3.9,4.5v5.5c0,2.9-1.4,4.5-3.9,4.5
			C395.7,214.9,394.3,213.3,394.3,210.4z M400.9,210.5v-5.8c0-2-0.8-3.2-2.7-3.2c-1.8,0-2.7,1.2-2.7,3.2v5.8c0,2,0.8,3.2,2.7,3.2
			C400,213.8,400.9,212.6,400.9,210.5z"/>
		<path class="st3" d="M410.1,200.6v1.3c-0.3-0.1-0.6-0.2-1-0.2c-2,0-3,1.5-3,4.8v8.2h-1.3v-13.9h1.1l0,2.2c0.5-1.7,1.6-2.5,3.1-2.5
			C409.4,200.4,409.7,200.5,410.1,200.6z"/>
		<path class="st3" d="M419.4,204.9v2.8h-6.6v2.9c0,2.1,0.9,3.2,2.7,3.2c1.8,0,2.7-1.1,2.7-3.2v-0.3h1.2v0.2c0,2.9-1.4,4.5-3.9,4.5
			c-2.6,0-3.9-1.6-3.9-4.5v-5.5c0-2.9,1.3-4.5,3.9-4.5C418,200.4,419.4,202,419.4,204.9z M418.2,206.6v-1.8c0-2.1-1-3.2-2.7-3.2
			c-1.8,0-2.7,1.1-2.7,3.2v1.8H418.2z"/>
		<path class="st3" d="M426.1,211.1v-0.5h1.2v0.5c0,1.7,1,2.6,2.6,2.6c1.5,0,2.6-0.8,2.6-2.5s-1.4-2.4-2.8-3.1
			c-1.7-0.8-3.4-1.6-3.4-4.1c0-2.2,1.4-3.6,3.6-3.6c2.2,0,3.6,1.4,3.6,3.7v0.3h-1.2v-0.3c0-1.7-1-2.5-2.4-2.5
			c-1.3,0-2.4,0.8-2.4,2.4c0,1.7,1.3,2.4,2.8,3.1c1.7,0.8,3.4,1.7,3.4,4.2c0,2.3-1.4,3.7-3.8,3.7
			C427.6,214.9,426.1,213.5,426.1,211.1z"/>
		<path class="st3" d="M442.4,214.6c-0.1-0.4-0.2-1.2-0.2-2.1c-0.6,1.5-1.8,2.4-3.5,2.4c-2,0-3.2-1.3-3.2-3.4c0-2.1,1-3.3,3.6-4.5
			c2.6-1.1,3-1.5,3-2.6v-0.4c0-1.6-0.9-2.5-2.4-2.5s-2.6,0.9-2.6,2.7v0.3h-1.2v-0.3c0-2.5,1.5-3.8,3.8-3.8c2.4,0,3.6,1.4,3.6,3.8
			v6.8c0,1.5,0.1,2.8,0.3,3.6H442.4z M442.1,209.8v-3.2c-0.3,0.5-1,0.8-2.6,1.6c-1.9,0.8-2.7,1.8-2.7,3.3c0,1.5,0.8,2.4,2.2,2.4
			C440.8,213.8,442.1,212.2,442.1,209.8z"/>
		<path class="st3" d="M454,204.4v10.2h-1.3v-10c0-2-0.8-3.1-2.3-3.1c-1.7,0-2.9,1.5-2.9,4v9.1h-1.3v-13.9h1.1l0,2
			c0.6-1.5,1.8-2.3,3.3-2.3C452.9,200.4,454,201.7,454,204.4z"/>
		<path class="st3" d="M456.6,210.4v-5.5c0-2.9,1.4-4.5,3.9-4.5c2.5,0,3.9,1.6,3.9,4.5v5.5c0,2.9-1.4,4.5-3.9,4.5
			C458,214.9,456.6,213.3,456.6,210.4z M463.2,210.5v-5.8c0-2-0.8-3.2-2.7-3.2c-1.8,0-2.7,1.2-2.7,3.2v5.8c0,2,0.8,3.2,2.7,3.2
			C462.4,213.8,463.2,212.6,463.2,210.5z"/>
	</g>
	<g>
	</g>
	<g>
	</g>
	<g>
	</g>
	<g>
	</g>
	<g>
	</g>
	<g>
	</g>
</g>
</svg>
