<?xml version="1.0" encoding="utf-8"?>
<!-- Generator: Adobe Illustrator 25.4.1, SVG Export Plug-In . SVG Version: 6.00 Build 0)  -->
<svg version="1.1" id="Ebene_1" xmlns="http://www.w3.org/2000/svg" xmlns:xlink="http://www.w3.org/1999/xlink" x="0px" y="0px"
	 viewBox="0 0 590.3 586.4" style="enable-background:new 0 0 590.3 586.4;" xml:space="preserve">
<style type="text/css">
	.st0{fill:url(#SVGID_1_);}
	.st1{fill:url(#SVGID_00000178910083462170683440000005973540333770059684_);}
	.st2{fill:url(#SVGID_00000037662696983767230880000015366582636257003948_);}
	.st3{fill:#FBF8CC;}
	.st4{fill:#FDE4CF;}
	.st5{fill:#FFCFD2;}
	.st6{fill:#F1C0E8;}
	.st7{fill:#CFBAF0;}
	.st8{fill:#A3C4F3;}
	.st9{fill:#90DBF4;}
	.st10{fill:#8EECF5;}
	.st11{fill:#98F5E1;}
	.st12{fill:#B9FBC0;}
</style>
<g>
	<linearGradient id="SVGID_1_" gradientUnits="userSpaceOnUse" x1="0" y1="527.1435" x2="590.3" y2="527.1435">
		<stop  offset="0" style="stop-color:#343434"/>
		<stop  offset="1" style="stop-color:#131313"/>
	</linearGradient>
	<path class="st0" d="M590.3,505.4c0,0-79.7-90.2-301.4,9.3c0,0-150.2,78.7-288.9,33.3c0,0,123.3,102.7,402-28
		C402,520.1,518.7,463.4,590.3,505.4z"/>
	
		<linearGradient id="SVGID_00000159468946813039850250000017461211968416023722_" gradientUnits="userSpaceOnUse" x1="38.3" y1="320.3" x2="274.143" y2="320.3">
		<stop  offset="0" style="stop-color:#343434"/>
		<stop  offset="1" style="stop-color:#131313"/>
	</linearGradient>
	<path style="fill:url(#SVGID_00000159468946813039850250000017461211968416023722_);" d="M38.3,538.2c0,0,261.7-130.4,209.7-435.8
		C248,102.4,383.3,422.6,38.3,538.2z"/>
	
		<linearGradient id="SVGID_00000036248020378903390010000013040021467121958811_" gradientUnits="userSpaceOnUse" x1="113.3" y1="269.55" x2="516.1323" y2="269.55">
		<stop  offset="0" style="stop-color:#343434"/>
		<stop  offset="1" style="stop-color:#131313"/>
	</linearGradient>
	<path style="fill:url(#SVGID_00000036248020378903390010000013040021467121958811_);" d="M113.3,539.1c0,0,33.7-1,127.3-41.7
		c93.7-40.7,208-91,275.3-58.3c0,0,16.4-222.2-226.4-439.1C289.6,0,435.3,365.1,113.3,539.1z"/>
</g>
<rect x="700" y="-322" class="st3" width="50" height="220"/>
<rect x="750" y="-322" class="st4" width="50" height="220"/>
<rect x="800" y="-322" class="st5" width="50" height="220"/>
<rect x="850" y="-322" class="st6" width="50" height="220"/>
<rect x="900" y="-322" class="st7" width="50" height="220"/>
<rect x="950" y="-322" class="st8" width="50" height="220"/>
<rect x="1000" y="-322" class="st9" width="50" height="220"/>
<rect x="1050" y="-322" class="st10" width="50" height="220"/>
<rect x="1100" y="-322" class="st11" width="50" height="220"/>
<rect x="1150" y="-322" class="st12" width="50" height="220"/>
<text transform="matrix(1 0 0 1 710 -86.9741)" style="font-family:'ArialMT'; font-size:6px;">Exported from Coolors.co</text>
<text transform="matrix(1 0 0 1 952.9707 -86.9741)" style="font-family:'ArialMT'; font-size:6px;">https://coolors.co/fbf8cc-fde4cf-ffcfd2-f1c0e8-cfbaf0-a3c4f3-90dbf4-8eecf5-98f5e1-b9fbc0</text>
</svg>
