<?xml version="1.0" encoding="utf-8"?>
<!-- Generator: Adobe Illustrator 25.4.1, SVG Export Plug-In . SVG Version: 6.00 Build 0)  -->
<svg version="1.1" id="Ebene_1" xmlns="http://www.w3.org/2000/svg" xmlns:xlink="http://www.w3.org/1999/xlink" x="0px" y="0px"
	 viewBox="0 0 590.3 586.4" style="enable-background:new 0 0 590.3 586.4;" xml:space="preserve">
<style type="text/css">
	.st0{fill:url(#SVGID_1_);}
	.st1{fill:url(#SVGID_00000123409328678335406040000010324112428316585903_);}
	.st2{fill:url(#SVGID_00000032611803540526492730000012968465505435548334_);}
</style>
<g>
	
		<linearGradient id="SVGID_1_" gradientUnits="userSpaceOnUse" x1="290.9685" y1="-211.9628" x2="301.7877" y2="378.2714" gradientTransform="matrix(1 0 0 -1 0 542.8561)">
		<stop  offset="0.9001" style="stop-color:#E9C0DC"/>
		<stop  offset="1" style="stop-color:#F9CDD2"/>
	</linearGradient>
	<path class="st0" d="M590.3,505.4c0,0-79.7-90.2-301.4,9.3c0,0-150.2,78.7-288.9,33.3c0,0,123.3,102.7,402-28
		C402,520.1,518.7,463.4,590.3,505.4z"/>
	
		<linearGradient id="SVGID_00000030447167535897044860000003399353729180424098_" gradientUnits="userSpaceOnUse" x1="157.527" y1="103.1742" x2="151.5132" y2="338.9209" gradientTransform="matrix(1 0 0 -1 0 542.8561)">
		<stop  offset="0" style="stop-color:#E9C0DC"/>
		<stop  offset="1" style="stop-color:#F9CDD2"/>
	</linearGradient>
	<path style="fill:url(#SVGID_00000030447167535897044860000003399353729180424098_);" d="M38.3,538.2c0,0,261.7-130.4,209.7-435.8
		C248,102.4,383.3,422.6,38.3,538.2z"/>
	
		<linearGradient id="SVGID_00000165216897351042817770000012632054275797780643_" gradientUnits="userSpaceOnUse" x1="314.7162" y1="80.3006" x2="314.7162" y2="483.2011" gradientTransform="matrix(1 0 0 -1 0 542.8561)">
		<stop  offset="0" style="stop-color:#E9C0DC"/>
		<stop  offset="1" style="stop-color:#F9CDD2"/>
	</linearGradient>
	<path style="fill:url(#SVGID_00000165216897351042817770000012632054275797780643_);" d="M113.3,539.1c0,0,33.7-1,127.3-41.7
		c93.7-40.7,208-91,275.3-58.3c0,0,16.4-222.2-226.4-439.1C289.6,0,435.3,365.1,113.3,539.1z"/>
</g>
</svg>
